<?xml version="1.0" standalone="no"?>
<!DOCTYPE svg PUBLIC "-//W3C//DTD SVG 20010904//EN"
 "http://www.w3.org/TR/2001/REC-SVG-20010904/DTD/svg10.dtd">
<svg version="1.0" xmlns="http://www.w3.org/2000/svg"
 width="500.000000pt" height="500.000000pt" viewBox="0 0 500.000000 500.000000"
 preserveAspectRatio="xMidYMid meet">
<metadata>
Created by potrace 1.14, written by Peter Selinger 2001-2017
</metadata>
<g transform="translate(0.000000,500.000000) scale(0.100000,-0.100000)"
fill="#000000" stroke="none">
<path d="M3595 4123 c-74 -53 -352 -335 -485 -493 -30 -36 -59 -70 -65 -76
-24 -27 -67 -77 -164 -191 -57 -68 -106 -123 -110 -123 -3 0 -15 13 -26 29
-19 29 -49 48 -70 46 -99 -14 -145 -101 -149 -285 l-2 -98 -100 -124 c-140
-174 -207 -263 -252 -338 -36 -60 -43 -66 -93 -82 -63 -20 -201 -23 -250 -6
-52 17 -109 58 -124 89 -14 26 -13 28 23 55 159 120 211 281 151 466 -34 107
-89 149 -167 129 -120 -33 -201 -217 -206 -470 l-2 -64 -36 -13 c-20 -7 -74
-19 -120 -28 -77 -14 -134 -20 -298 -31 -51 -4 -69 -9 -82 -26 -24 -29 -23
-70 3 -103 21 -26 24 -27 123 -25 139 2 289 23 391 54 67 20 68 20 89 -20 28
-52 99 -113 169 -145 71 -33 95 -38 190 -39 37 -1 67 -5 67 -10 0 -5 -8 -8
-17 -6 -10 1 -24 -2 -30 -8 -7 -5 -13 -6 -13 -2 0 4 -21 -6 -47 -21 -89 -51
-177 -163 -253 -318 -23 -47 -39 -93 -36 -101 3 -9 -1 -18 -9 -21 -8 -4 -15
-14 -15 -24 0 -11 -4 -21 -9 -25 -34 -21 -87 -272 -96 -455 -4 -75 13 -159 45
-224 40 -84 142 -167 127 -103 -29 113 -16 168 57 240 53 53 147 106 261 148
248 91 454 365 456 608 1 64 1 64 63 135 81 93 133 163 246 326 51 74 95 137
96 139 2 2 32 -4 68 -14 133 -36 302 -3 419 83 108 79 139 117 340 422 31 47
69 99 84 116 45 50 120 103 166 115 63 17 163 13 247 -11 122 -35 126 -35 154
-7 27 27 33 65 16 96 -25 47 -195 90 -335 84 -220 -8 -339 -99 -529 -403 -148
-236 -226 -309 -366 -343 -64 -15 -146 -15 -162 1 -4 4 8 32 27 62 183 295
451 752 585 1000 40 74 89 154 107 179 88 114 106 204 54 260 -16 17 -35 31
-43 31 -7 0 -35 -17 -63 -37z m-1850 -1292 c-7 -60 -20 -90 -60 -136 l-26 -30
6 50 c10 89 17 119 43 175 l24 55 9 -30 c5 -16 7 -54 4 -84z m-120 -1523 c-13
-65 -29 -72 -31 -15 -2 39 2 48 21 41 7 -3 12 -15 10 -26z"/>
</g>
</svg>
